<?xml version="1.0" encoding="UTF-8" standalone="no"?>
<!-- Created with Inkscape (http://www.inkscape.org/) -->
<svg xmlns:inkscape="http://www.inkscape.org/namespaces/inkscape" xmlns:rdf="http://www.w3.org/1999/02/22-rdf-syntax-ns#" xmlns="http://www.w3.org/2000/svg" xmlns:cc="http://web.resource.org/cc/" xmlns:xlink="http://www.w3.org/1999/xlink" xmlns:dc="http://purl.org/dc/elements/1.1/" xmlns:svg="http://www.w3.org/2000/svg" xmlns:sodipodi="http://sodipodi.sourceforge.net/DTD/sodipodi-0.dtd" xmlns:ns1="http://sozi.baierouge.fr" id="svg2" viewBox="0 0 60.685 64" version="1.0" inkscape:version="0.91 r13725">
  <defs id="defs4">
    <filter id="filter3436">
      <feGaussianBlur id="feGaussianBlur3438" stdDeviation="1.1537394" inkscape:collect="always"/>
    </filter>
    <filter id="filter3452">
      <feGaussianBlur id="feGaussianBlur3454" stdDeviation="0.42194333" inkscape:collect="always"/>
    </filter>
    <filter id="filter4425">
      <feGaussianBlur id="feGaussianBlur4427" stdDeviation="0.28843486" inkscape:collect="always"/>
    </filter>
    <filter id="filter6369">
      <feGaussianBlur id="feGaussianBlur6371" stdDeviation="0.28843485" inkscape:collect="always"/>
    </filter>
    <filter id="filter6373">
      <feGaussianBlur id="feGaussianBlur6375" stdDeviation="0.28743199" inkscape:collect="always"/>
    </filter>
    <linearGradient id="linearGradient7447" y2="8.9962" gradientUnits="userSpaceOnUse" x2="20.528" y1="8.9962" x1="18.563">
      <stop id="stop7443" style="stop-color:#ffffff" offset="0"/>
      <stop id="stop7445" style="stop-color:#ffffff;stop-opacity:0" offset="1"/>
    </linearGradient>
    <filter id="filter7473">
      <feGaussianBlur id="feGaussianBlur7475" stdDeviation="0.0060254806" inkscape:collect="always"/>
    </filter>
  </defs>
  <g id="layer1" transform="translate(-127.76 -186.88)">
    <g id="g7477">
      <g id="g2402" transform="matrix(.49115 0 0 .49115 106.98 114.99)">
        <path id="path2414" style="fill:#48aad6" d="m96.372 265.15c-18.938-3.78-35.25-17.86-42.212-35.82-4.1-10.14-4.215-21.45-2.624-32.14 2.095-13.13 9.865-24.81 19.835-33.35 8.889-7.58 20.206-12.42 31.939-12.85 10.93-0.82 22.31 0.74 31.92 6.29 14.31 7.89 25.41 21.82 29.23 37.78 1.72 8.61 1.47 17.54 0.1 26.18-4.3 21.07-21.85 38.37-42.62 43.39-8.32 2.19-17.19 2.68-25.568 0.52z"/>
        <path id="path2412" style="filter:url(#filter3436);fill:#229dcf" d="m96.372 265.15c-18.938-3.78-35.25-17.86-42.212-35.82-4.1-10.14-4.215-21.45-2.624-32.14 2.095-13.13 9.865-24.81 19.835-33.35 8.889-7.58 20.206-12.42 31.939-12.85 10.93-0.82 22.31 0.74 31.92 6.29 14.31 7.89 25.41 21.82 29.23 37.78 1.72 8.61 1.47 17.54 0.1 26.18-4.3 21.07-21.85 38.37-42.62 43.39-8.32 2.19-17.19 2.68-25.568 0.52zm17.618-71.77c-2.62-2.34-9.4-3.8-6.45-8.62 2.24-3.69 7.63-2.64 9.72-6.29 1.23-1.01 3.69-1.77 0.84-1.5-4.67-1.15 1.02-5.47 0.54-8.41 0.55-3.79 1.28-7.69 0.71-11.51-1.84-4.16-7.62-2.48-11.27-2.91-5.28-0.17-10.561 0.75-15.641 2.15-0.293 4.54-0.426 9.53 2.063 13.5 1.176 1.67 0.49 3.51-1.121 1.2-3.705-2.67-9.5 2.14-5.865 5.86 3.595 6.01 8.9 11 14.944 14.49 4 2.18 8.39 3.6 12.89 4.27 0.02-0.95-1.04-1.42-1.36-2.23zm17.27-6.72c1.8-2.96-0.19-8.14-2.4-9.76-3.11 0.23-2.86 4.64-0.01 4.95 1.35 1.77-1.73 7.73 1.3 6.75 0.42-0.62 0.75-1.29 1.11-1.94z"/>
        <path id="path2410" style="filter:url(#filter6369);fill:#1d84bc" d="m96.372 265.15c-18.938-3.78-35.25-17.86-42.212-35.82-4.1-10.14-4.215-21.45-2.624-32.14 2.095-13.13 9.865-24.81 19.835-33.35 8.889-7.58 20.206-12.42 31.939-12.85 10.93-0.82 22.31 0.74 31.92 6.29 14.31 7.89 25.41 21.82 29.23 37.78 1.72 8.61 1.47 17.54 0.1 26.18-4.3 21.07-21.85 38.37-42.62 43.39-8.32 2.19-17.19 2.68-25.568 0.52zm33.618-61.73c4.05-2.2 8.25-4.63 10.87-8.56-1.35-1.98-3.02-5.72 0.83-5.57 1.99-1.05 7.13-2.97 2.23-3.89-2.26-0.96-4 1.85-5.11 2.15-2.42-2.51-6.38-4.2-7.62-7.41 0.99-3.44-3.58-5.03-4.83-1.84 1.2 3.1 3.79 5.69 2.13 9.37-0.33 4.72-4.75 7.16-9.07 7.16-3.56 0.25-5.63-3.17-8.96-3.92-4.83-1.36-3.18-7.5 0.73-8.83 3.22-0.56 5.19-2.9 7.72-4.71 3.44-0.57-5.52-0.05-2.36-3.29 3.62-5.02 5.35-11.14 8.04-16.68-2.7-3.09-6.41-5.64-10.7-5.1-4.14-0.23-8.31-0.49-12.44 0.03 3.86 2.1-2.842 1.44-4.203 2.43-3.085 0.71-7.774 1.85-5.565 5.85 0.792 3.86 1.811 7.73 3.681 11.22-2.896-1.17-6.834-3.45-8.861 0.6-1.362 2.69-3.228 9.37-7.284 6.65-0.891-1.75 0.393-3.23-2.198-3.18-2.996-3.81-7.122 5.08-2.183 5.09 3.345 0.87-0.098 7.85 4.504 8.69 2.222-0.06 4.385 1.38 4.662 2.57 2.58-1.55 7.272-3.87 8.118 0.75 2.224 3.15 3.978 6.58 4.623 10.24 2.561 2.46 6.466 2.38 9.736 3.23 7.91 1.16 16.2 0.29 23.51-3.05zm19.64-26.4c-0.21-4.66-3.39 5.33-0.15 1.62 0.13-0.53 0.13-1.08 0.15-1.62zm-6.03-5.3c-3.2-2.17-1.43 3.5 0.64 1.09 0.12-0.47-0.24-0.92-0.64-1.09z"/>
        <path id="path2408" style="filter:url(#filter4425);fill:#0e60a0" d="m96.372 265.15c-18.938-3.78-35.25-17.86-42.212-35.82-4.1-10.14-4.215-21.45-2.624-32.14 2.095-13.13 9.865-24.81 19.835-33.35 8.889-7.58 20.206-12.42 31.939-12.85 10.93-0.82 22.31 0.74 31.92 6.29 14.31 7.89 25.41 21.82 29.23 37.78 1.72 8.61 1.47 17.54 0.1 26.18-4.3 21.07-21.85 38.37-42.62 43.39-8.32 2.19-17.19 2.68-25.568 0.52zm36.328-54.51c3.13-2.17 7.9-2.75 9.32-6.76-0.42-1.8-3.59-6.53 0.78-6.03 4.44 0.15 8.79-2.83 9.86-7.21 1.66-4.09 2.69-8.53 2.36-12.96-1.35-2.68-2.64-7.05-6.19-7.15-0.91 3.55-1.14 7.7 0.7 10.69-0.85 3.54-4.98 5.46-7.81 2.88-1.77 0.47-1.61 5.62-3.84 2.37-2.41-1.98-5.69-4.81-6.7-7.22 1.6-4.04-4.05-4.14-5.01-0.95 0.53 2.82 2.89 5.39 2.09 8.66-0.09 3.95-3.31 6.92-7.15 7.34-3.19 0.77-7.42-0.76-8.46-4.02 2.15-2.78 5.38-5.14 7.44-8.25 4.15-5.45 7.35-11.64 9.69-18.07 1.43-2.65 0.45-5.26-1.39-7.41-1.45-2.85-4.95-3.08-7.73-3.68-7.43-0.82-15.02-1.55-22.442-0.32-4.315 0.54-7.415 3.89-11.246 5.62-3.552 0.86-6.573 4.1-3.802 7.67 1.781 3.72 3.143 8.74 0.266 12.28-1.414 2.78-5.951 0.15-2.929-1.92-0.809-1.62-3.517-1.37-5.033-1.84-2.893 1.45-5.575 6.64-9.257 3.73-0.058-1.86 0.834-7.29-2.552-4.68-2.702 3.08-1.105 7.42 0.704 10.51 1.94 3.29 4.161 6.46 6.646 9.34 3.164 2.56 7.672 0.7 10.018-2.08 1.776-1.78 2.659-0.45 1.545 1.3 1.897 2.02 5.432-4.01 8.03-0.65 1.779 2.83 5.255 5.87 5.044 9.28-0.897 1.47-2.805 3.67 0.241 3.45 3.934 1.26 0.623 6.87 4.467 7.67 4.37 1.59 9.15 0.96 13.7 1.2 6.28 0.05 12.88 0.09 18.64-2.79zm7.14-18.47c-1.22-2.69 3.59-3.08 4.84-4.47 3.78 0.81-1.32 5.67-3.31 5.76-0.74-0.03-1.27-0.66-1.53-1.29zm-66.644-8.4c-3.331-4.46 6.17-3.32 1.642 0.65-0.62 0.67-1.509 0.12-1.642-0.65zm71.004-11c-0.07-3.09-6.57-0.95-2.27 0.69 0.78 0.46 1.93 0.21 2.27-0.69z"/>
        <path id="path2406" style="filter:url(#filter6373);fill:#03185e" d="m101.47 265.7c-13.18-1.07-25.513-7.71-34.438-17.35-9.936-10.11-16.836-23.93-16.161-38.36 0.011-7.53 0.59-15.22 3.353-22.29 1.968-2.11-0.025 3.27-0.241 4.2-0.837 3.49-2.625 8.26 0.533 11.04 2.185 0.06 4.974-2.51 5.765 1.15 3.748 1.27 4.527-4.93 6.958-6.89 2.642-2.71 7.167-1.7 9.586 0.79 6.071 4.01 12.782 6.95 19.354 9.95 3.275 3.67-2.622 6.72-3.763 9.98-0.917 3.69 4.492 2.14 4.227 5.88 0.944 2.36 2.071-2.48 4.147-0.7 4.1 1.2 3.25 8.29 8.57 6.66 6.57-1.19 13.73-0.61 19.71-4.06 2.61-2.92 5.75-5.7 5.85-9.9 0.27-2.48 3.57-3.37 4.24-4.51-1.21-3.71 4-1.24 4.03-4.82 0.52-3.1-1.12-9.8 4.26-8.31 3.58 1.7 6.86 4.01 9.98 6.45 3.88 2.53 7.5-2.42 6.33-6.13-0.21-4.04-1.81-7.81-2.73-11.7 2.89 0.97 2.02 6.16 3.24 8.71 2.93 15.1 1.29 31.92-8.07 44.59-9.54 13.45-24.31 23.97-41 25.68-4.56 0.52-9.18 0.49-13.73-0.06zm8.73-41.93c-2.98-2.88 5.09-3.96 2.3-0.16-0.47 1.12-1.89 1.76-2.3 0.16zm30-32c0.52-3.12 4.13 2.23 0.64 0.65-0.28-0.12-0.42-0.44-0.64-0.65zm3.5-2.44c0.26-2.8 3.59 0.8 0.67 0.19l-0.67-0.19zm-6.33-4.03c-2.79-2.65 0.31-6.07 2.09-8.3 1.02-2.71 8.31-5.84 8.17-1.21-1.81 3.17 4.19 5.24 0.28 7.71-1.87 2.13-5 0.3-6.53 0.48-0.9 1.17-2.96 3.97-4.01 1.32zm-81.674-1.17c-0.219-1.6 3.615-5.17 1.633-1.85-0.244 0.31-1.31 3.69-1.633 1.85zm103.14-2.11c-1.88-4.21 3.57 2.58 1 2.06-0.39-0.65-0.69-1.36-1-2.06zm-86.144 0.75c-1.24-2.93 5.793 1.26 1.325 0.72-0.467-0.19-0.9-0.45-1.325-0.72zm-13.029-5.94c0.079-1.81 3.623-3.09 1.511-0.57-0.319 1.11-3.334 3.48-1.511 0.57zm93.643-3.16c-1.32-3.41-5.37-4.98-8.29-2.9-3.53-1.59-0.31-7.39-4.46-9.01-1.11-0.77-2.72-3.21-0.25-1.46 5.38 3.83 9.82 8.79 14.31 13.58 1.49 1.07 3.72 6.25 0.88 2.72-0.74-0.97-1.36-2.02-2.19-2.93zm-86.769-0.15c0.336-1.78 0.816-5.77-1.616-2.58-1.363 0.42 2.082-2.84 2.867-3.61 4.591-4.16 9.68-7.75 14.979-10.95 2.38 0.25-3.27 2.91-4.419 3.57-3.174 1.99-4.953 5.39-7.086 8.34-1.009 3.16 3.271 9.08-2.213 9.7-2.729 0.53-3.042-2.56-2.512-4.47zm47.429-22.35c2.04-1.51 2.9 2.16 0 0z"/>
        <path id="path2404" style="filter:url(#filter3452);fill:#000123" d="m99.696 265.15c-10.797-2.41-21.476-6.74-29.581-14.48-2.873-2.52-5.654-5.23-7.704-8.48 1.344-2.62 4.923 1.75 7.135 1.91 2.238 1.58 6.84 4.04 6.938-0.49 1.18-1.32 2.829-4.3-0.27-4.3-2.507-3.45-4.702-8.07-4.102-12.34 0.912-1.81 4.249-3.77 1.951-5.89 3.088 0.2 5.803 1.98 8.844 2.49 6.229 1.78 12.612 2.96 18.973 4.12 2.16 1.23 1.91 7.55 5.42 4.26 3.46-2.47 8.43-1.44 11.25 1.48 3.76 1.26 7.53 7.16 2.1 8.95-3.53 0.64-6.53 2.22-9.82 3.35-0.58 2.41 2.34 4.4 4.24 5.49 4.2 2.21 8.96 0.36 13.3-0.27 5.45-1.18 10.77-2.92 15.91-5.07 3.22-3.08-4.78-1.86-4.39-5.52-0.23-2.06-2.3-4.45-2.14-5.73 2.29-4.57-4.33-5.06-6.53-6.89-0.92-3.53 3.83-5.09 6.34-6.31 6.83-3.79 12.6-9.18 17.91-14.83 2.95-1.28 8.35-0.22 9.65 2.28-0.49 10.24-3.65 20.32-8.7 29.23-6.67 12.37-18.82 21.24-32.26 24.96-7.92 2.32-16.28 2.64-24.464 2.08zm-8-14.38c-2.925-4.04-0.752 3.75 0 0zm-31.692-31.23c-4.873 0.64-4.308-8.2 0.493-4.66 3.707 1.35 7.232 3.14 10.649 5.1-3.533 1.64-7.535 0.14-11.142-0.44z"/>
      </g>
      <path id="path4429" style="fill:#ffffff" d="m140.3 212.57c-3.42 1.28-5.52-7.53-1.26-5.12 1.26 1.27 2.53 3.42 1.27 5.12"/>
      <path id="path6450" style="opacity:.8;filter:url(#filter7473);fill:url(#linearGradient7447)" d="m20.528 8.9962a0.98291 0.31679 0 1 1 0 -0.0027" transform="matrix(0 6.4473 -44.247 0 557.97 70.475)"/>
      <g id="g4871" transform="matrix(.96635 0 0 1.0043 2.6667 2.342)">
        <g id="g4694" transform="matrix(.46873 0 0 .56146 153.59 122.14)">
          <path id="path4696" style="fill:#8dc369" d="m7.0512 158.59c0.9674-4.85 4.4688-8.6 6.6968-12.87 2.937-3.53 8.403-3.29 11.994-0.93 5.666 2.98 8.324 9.09 10.98 14.55 2.433 4.83 5.54 9.31 9.14 13.32 2.317 4.67 2.165 10.06 2.369 15.14-0.522 5.32-4.104 9.67-7.502 13.53-2.41 2.8-6.36 3.37-8.97 5.76-1.896 3.03 3.568 3.02 5.416 2.58 5.29-1.77 8.501-6.8 13.24-9.52 2.534-1.89 5.735-2.51 8.257-4.35 3.999-1.86 8.397-2.67 12.292-4.81 4.02-0.78 6.336-4.71 10.174-5.56 3.902 1.93-1.797 6.71-4.156 7.9-5.442 2.72-7.31 9.76-13.28 11.76-8.763 4.34-15.735 12.11-25.405 14.64-5.888 1.44-11.815 2.78-17.846 3.48-7.51-2.89-16.178-2.7-22.907-7.54-3.4667-3.11-7.842-1.53-11.747-1.93-5.662-2.39-6.427-9.53-11.348-12.77-3.184-0.64 0.823 7.57-2.537 4.35-2.87-3.64-4.776-7.92-5.893-12.39-0.188-3.1-4.143-6.12-4.571-1.51-0.221 2.84-2.501 4.57-2.843 0.8-1.709-4.77 0.174-10.11-1.808-14.79-1.37-3.53-6.472-0.77-6.468-5.05-1.309-5.57-2.731-11.43-1.113-17.1 2.638-8.7 6.652-17.18 12.77-23.98 4.013-3.39 9.349-4.52 13.657-7.47 4.278-2.46 7.812-6.07 10.407-10.23 1.712-1.63 5.7373-5.24 7.4056-3.36-0.9949 3.66-3.0096 6.96-3.7036 10.73-1.519 3.55-1.139 8.99-6.075 9.2-4.481 1.41-8.783 3.36-12.945 5.48-4.171 0.91-6.994 4.52-8.006 8.45 1.69 1.09 5.164-1.64 7.708-1.58 3.491-0.74 6.956-1.78 9.994-3.68 3.794-1.52 7.451 1.44 9.273 4.57 2.8004 3.49 6.6954 6.7 7.1956 11.44-1.3759 4.21-7.2716 3.61-9.7656 6.79-3.161 1.04-7.552 2.14-7.968 6.08-1.861 3.59 3.094 8.87 5.873 4.73 2.511-3.23 6.2238-5.2 10.179-6.02 4.3448-0.47 6.2814-4.94 10.043-6.15 4.758-0.06 5.372 5.94 9.473 7.43 2.097 0.95 6.075 4.89 7.636 2.86-0.742-3.71-4.533-8.14-8.603-5.76-3.57 2.8-7.7103-0.57-11.578-0.24-4.0357 0.06-7.2996 2.91-8.8075 6.5-0.8996 3.4-7.1325 7.45-3.0825 10.56 3.2016 1.43 6.6462 5.39 10.23 2.38 2.4716-2.34 5.8455-4.26 6.7604-7.72 0.4343-3.47 4.7076-5.61 1.6026-9.08-1.2844-2.68-0.4662-6.88-4.937-5.72-2.8174-0.04 1.9905 2.04 2.7677 2.91 2.7702 1.96 6.5303 2.08 7.8053 5.66 1.55 2.64 3.457 5.14 4.708 7.92-0.017 4.52-7.622 2.99-7.916 8.03-1.3994 2.77-2.7725 5.68-2.8591 8.84 3.0691 3.46 8.1941 0.87 11.744-0.46 4.839-2.38 9.44-5.24 14.055-8.01 2.92-2.66 1.314-7.06-0.588-9.83-3.868-7.1-6.458-14.78-8.381-22.6-0.577-2.59-2.182-5.81-5.29-5.61-4.049-0.79-8.604 1.69-9.14 5.98-0.807 1.8-2.708 2.7-3.8068 4.27zm-33.493-3.71c4.547 0.62 2.789-5.48 1.514-7.81-1.071-3.95-8.021-2.83-5.992 1.55 0.967 2.41 2.01 5 4.478 6.26z"/>
          <path id="path4698" style="fill:#4a6a8d" d="m9.7069 152.57c0.4451-4.5 5.1261-6.39 8.5181-8.39 3.521-1.32 7.038 1.29 9.471 3.63 7.475 7.44 10.938 17.78 17.752 25.73 2.341 4.05 2.095 9 2.105 13.53-0.256 5.21-4.016 9.22-7.151 13.04-2.495 2.9-5.878 4.86-9.513 5.9-3.75 3.12 1.861 7.02 5.107 4.9 8.046-2.13 12.726-9.96 20.318-13.02 2.875-1.57 6.223-1.48 9.242-2.5 4.03-1.6 7.319-4.59 11.344-6.2 2.067 3.75-1.981 7.01-4.212 9.55-4.13 2-8.509 3.67-11.958 6.8-5.359 4-10.545 8.84-17.269 10.31-4.06 1.56-7.695 4.35-12.161 4.71-5.115 1.23-10.685 2.11-15.683-0.06-7.0699-1.78-14.473-2.96-20.8-6.81-3.5859-1.13-8.1 0.9-10.959-2.34-2.738-2.32-4.858-5.24-7.138-7.98-0.319-3.28-4.194-3.17-5.042-0.3-3.118 0.17-2.216-5.27-4.207-7.13-1.975-2.17-1.315-8.66-5.077-7.65-1.969 2.96-6.139 3.21-4.864-1.19 0.41-3.2 1.818-6.71 0.025-9.75-3.647-2.28-6.226-6.13-6.752-10.41-1.503-5.39-1.738-11.26 0.145-16.58 0.191-3.96 3.886-6.34 5.326-9.8 2.273-3.84 4.653-8.13 8.719-10.27 5.901-1.92 10.437-6.3 15.385-9.85 2.693-2.15 5.405-4.41 6.948-7.56 0.428-2.42 5.9567-3.62 4.2778-0.37-2.5468 3.34-1.8638 7.63-3.2048 11.35-1.216 4.41-5.59 6.25-9.569 7.4-3.339 1.2-6.294 3.19-9.503 4.68-2.282 1.26-4.479 3.13-5.111 5.77 1.444 3.63 6.371 0.92 9.307 1.33 3.667-0.43 7.281-1.89 9.812-4.63 4.517-1.91 3.227 5.86 6.661 7.13 2.0368 0.35 3.7778 1.07 2.9404 2.98 2.0361 2.08 4.6909 7.66 0.5134 8.62-2.8881 1.4-5.2818 3.8-8.5308 4.36-3.037 0.79-6.272 2.93-6.336 6.38-1.489 2.74 0.15 8.09 3.939 6.88 3.643-2.18 6.504-5.73 10.686-7.05 4.6326-0.82 7.6048-4.7 10.866-7.7 4.0739-1.79 5.799 3.41 7.956 5.75 2.421 1.87 5.4 3.85 8.439 4.11-2.427-3.57-6.638-4.3-10.266-5.44-2.7157-2.45-5.7206-1.21-8.2236 0.45-3.5532 1.02-7.7869 2.11-9.4067 5.84-2.1163 3.54-3.9357 7.25-5.9697 10.84 3.6061 1.93 6.8938 5.24 11.268 5.08 3.9295-1.59 6.8718-4.84 9.328-8.18-0.7879-3.86 2.5931-5.81 5.244-7.3-0.228-3.13-3.5169-4.81-5.1682-7.18-0.4044-1.7-4.1752-4.8-4.414-2.68 2.8376 2.82 8.1402 2.81 8.9402 7.62 1.395 4.04 6.437 5.27 7.785 8.98-0.451 4.67-7.124 1.02-8.397 5.45-1.2812 3.71-3.2205 7.54-3.2177 11.51 1.2377 3.57 5.9907 3.69 8.9747 2.45 3.032-0.97 4.633-4.15 7.785-4.89 3.944-1.31 8.956-1.88 10.973-6.09 1.712-3.27 1.235-7.65-1.408-10.29-3.72-7.73-5.204-16.34-9.113-23.98-1.305-2.12-3.027-4.75-5.653-5.1-3.87 0.25-7.358 2.77-9.8231 5.61zm-54.475 1.43c4.05-0.06 0.991-6.31-1.383-2.59-0.737 1.05-0.133 2.94 1.383 2.59zm18.707 2.14c2.777 2.35 5.666-2.02 2.625-3.88-1.531-2.76-2.323-6.74-5.75-7.69-3.791 0.59-1.81 6.74-0.157 8.97 0.825 1.15 1.925 2.15 3.282 2.6z"/>
          <path id="path4700" style="fill:#53c605" d="m9.702 152.55c1.117-4.08 5.411-6.04 8.595-8.22 5.206-1.03 9.511 3.23 12.254 7.13 5.18 7.27 8.922 15.49 14.509 22.48 2.218 4.05 2.019 8.88 2.227 13.35-0.192 5.05-3.755 9.01-6.608 12.86-3.029 4.04-8.326 4.88-12.951 5.82 1.046 3.44 5.674 5.66 9.082 4.61 7.193-2.17 11.594-8.92 18.246-12.11 2.959-1.68 6.351-2.19 9.63-2.76 4.425-1.48 7.906-4.8 12.214-6.52 2.067 3.75-1.981 7.01-4.212 9.55-4.13 2-8.509 3.67-11.958 6.8-5.346 3.98-10.505 8.83-17.213 10.28-3.952 1.51-7.475 4.33-11.862 4.5-4.971 0.85-10.208 1.78-15.167 0.49-7.2735-3.44-15.266-5.26-22.173-9.48-2.735-3.76-7.768-2.56-11.081-4.35-3.705-3.48-7.852-6.54-10.916-10.65-2.707-3.35-4.953-7.06-7.544-10.48-1.838-0.91-6.412 1.14-5.116-2.79 1.782-4.73-2.872-7.38-5.382-10.16-1.578-2.34 0.572-7.81-1.433-8.51-1.534 1.47-3.98 1.19-2.984-1.41-0.024-5.88-0.263-12.22 2.92-17.43 2.933-2.14 3.551-6.04 5.755-8.79 1.908-2.86 4.368-5.4 7.349-7.15 4.232-0.37 7.011-4.03 10.43-6.13 3.552-2.61 7.218-5.18 10.01-8.63-0.346-2.89 6.1632-6.68 5.5442-2.34-3.2792 3.27-1.6931 8.38-3.7802 12.23-2.123 4.64-7.529 5.71-11.755 7.58-3.367 1.58-6.819 3.12-9.865 5.25-2.969 2.9-4.821 6.78-8.127 9.37-1.867 1.59-6.622 5.73-3.464 7.52 3.921-1.54 4.383-7.04 8.668-8.42 5.185-3.21 11.696-1.99 17.139-4.48 1.645-3.97 7.333-3.22 7.243 1.19 2.4448 3.94 7.3328 6.5 7.7862 11.53-0.1759 3.43-4.3656 3.61-6.6592 5.13-2.673 2.66-7.551 1.97-9.599 5.53-1.154 2.85-2.211 6.4-0.159 9.15 2.662 2.46 5.564-1.3 7.788-2.71 2.402-2.03 5.1661-3.69 8.295-4.25 4.0483-1.39 5.988-5.9 9.9102-7.4 4.5246-0.37 4.7118 5.76 8.2768 7.27 1.677 1.06 6.308 3.57 6.593 2.6-2.495-3.75-6.969-3.81-10.498-5.47-3.1567-2.84-5.7807 0.33-8.8239 1.09-3.3802 0.87-7.0528 2.37-8.4673 5.84-2.0301 3.44-3.7978 7.02-5.7658 10.5 3.6061 1.93 6.8938 5.24 11.268 5.08 3.9295-1.59 6.8718-4.84 9.328-8.18-0.7484-3.73 2.4467-5.8 5.051-7.24 0.814-4.11-5.7317-3.86-6.2619-7.58-0.0141-2.46-4.4421-1.72-1.2799-0.99 3.6497 1 6.6728 3.86 7.6908 7.52 1.708 3.25 6.257 4.26 7.063 8.06-2.972 2.7-8.643 2.94-9.078 7.88-1.2979 3.4-4.6395 8.91-0.128 11.31 3.566 1.51 7.786 0.04 10.392-2.62 2.583-2.36 6.032-2.96 9.266-3.88 3.484-1.1 6.441-4.01 6.829-7.76 0.541-4.39-3.339-7.54-4.336-11.57-2.731-6.92-4.182-14.41-8.036-20.84-2.219-4.93-7.916-4.26-11.438-1.2-1.205 0.85-2.305 1.85-3.231 3zm5.509 61.06c-1.387-1.57-7.9372-2.03-4.218 0.91 1.12 0.65 8.005 2.19 4.218-0.91zm-41.272-57.47c2.958 2.45 5.65-2.6 2.178-4.02-2.069-2.44-2.912-7.35-6.885-7.1-1.509 4.06 0.61 9.49 4.707 11.12z"/>
          <path id="path4702" style="fill:#4ab005" d="m9.6838 152.49c1.4412-4.07 5.7552-6.8 9.5102-8.3 5.364-0.33 9.315 4.22 12.06 8.26 4.812 7.03 8.479 14.81 13.806 21.49 2.218 4.05 2.019 8.88 2.227 13.35-0.192 5.05-3.755 9.01-6.608 12.86-3.029 4.04-8.326 4.88-12.951 5.82 1.027 3.41 5.587 5.6 8.969 4.64 7.571-2.14 12.033-9.63 19.33-12.28 3.314-1.05 6.805-1.46 10.055-2.72 3.343 0.07-1.299 4.64-3.227 4.01-5.253 0.57-9.296 4.13-13.105 7.45-4.102 3.62-9.242 5.75-14.324 7.59-2.512 0.91-5.163 1.06-7.777 0.61-3.056-0.21-6.176-0.03-9.114 0.89-3.111 2.73-3.072-4.82-6.695-3.33-3.9238 0.45-7.4975 3.62-11.609 1.59-4.1062-0.85-6.7025-4.47-10.469-5.94-3.414-0.62-6.71-0.32-8.883-3.62-3.818-3.26-7.533-6.67-10.331-10.88-2.381-2.67-3.746-6.7-6.84-8.46-2.948 0.88-5.575-0.78-3.759-3.85 1.036-5.17-5.841-6.43-6.309-10.89-0.39-1.72 1.093-6.79-0.9-6.29-0.755 1.27-3.369 3.35-2.819 0.3-1.828-2.81-0.946-7.83 3.206-6.41 3.29-0.71 6.442-8.23 1.806-8.58-1.385 0.23-6.515 0.89-3.069-0.95 3.867-3.18 3.141-9.07 6.926-12.34 2.732-3.44 7.262-3.79 10.892-5.75 3.948-1.97 7.978-4.44 12.551-4.3 1.996-1.48 6.938 3.01 2.582 2.57-6.028 1.57-11.278 5.04-16.84 7.71-4.876 4.05-7.238 10.24-8.324 16.32-2.437 4.4 2.312 6.64 3.697 10.13 2.079 3.79-0.25 8.49 2.873 11.73 3.554 3.34 5.023 8.13 8.112 11.84 4.026 5.3 9.535 9.19 14.639 13.37 5.5244 4.3 12.204 7.48 19.343 7.3 5.994 0.06 12.167-1.78 16.513-6.04 3.418-3.05 7.112-5.79 10.46-8.91 2.983-2.91 5.109-7.14 4.016-11.37-0.88-5.71-5.212-9.98-6.758-15.46-2.277-6.17-3.865-13.29-9.292-17.54-2.922-2.46-6.93-2.03-9.419 0.81-1.457 1.02-2.95 2.66-4.1512 3.57zm-6.223 9.92c1.2425 0.29 5.4554 2.47 2.3717 0.68-0.8628-0.84-3.3822-3.47-2.3717-0.68zm6.5862 3.64c1.889 0.43 2.028 2.94 0.634 0.35 0.029-0.63-0.461-1.66-0.634-0.35zm9.272 10.78c-0.347 4.82-8.158 3.07-8.509 8.25-1.2254 3.56-5.1216 9.03-0.903 11.91 3.188 1.86 6.958 0.47 10.354 1 3.706 2.4-2.518 5.01-4.666 5.86-4.653 1.6-10.608 0.67-13.486-3.64-1.997-2.47-3.4509-5.52-3.4778-8.75 5.2707-0.88 8.5638-5.62 10.892-10.01 2.4128-2.18 6.5618-5.17 9.7958-4.62zm-6.987-4.85c3.359-0.71-2.245 2.53-0.278-0.18-0.545-0.08 0.221 0.81 0.278 0.18zm-12.653 15.92c-3.6251 3.01-7.7451-1.19-11.427-1.18-2.553 1.85-8.181 3.03-7.329-1.87 0.373-4.44 3.415-8 4.87-12.07 3.262-2.65 7.3246-4.11 10.382-7.08 0.9611-1.06 3.808 0.22 5.1397-1.92 2.575-1.68 5.1442 1.6 8.0897 0.72 3.1676 2.5 6.9536 4.02 10.649 5.59 2.429 1.31-1.817-2.15-2.517-2.84-3.126-2.28-6.962-1.96-10.203-4.11-3.66-0.18-6.5173 2.79-10.236 3.34-4.3337 1.88-5.7509 6.75-7.961 10.52-1.89 2.3-3.079 6 0.9521 6.87 2.7638 1.09 5.1217 3 8.1237 3.52 0.4942 0.16 0.98604 0.32 1.4669 0.51zm-20.098-9.9c-3.759 1.68-4.147-8.54-1.378-5.66 1.368 1.44 2.983 3.79 1.378 5.66zm-2.338-9.04c-2.089 1.59-0.521-3.43-2.96-2.71-3.042-3.5-2.125-9.18-6.157-12.04-1.746-1.41-3.472-7.65-0.429-6.89 1.282 3.46 1.646 8.05 6.146 8.67 2.844 2.86 7.096 4.93 10.423 1.59 3.165-1.52 3.004-6.17-0.855-6.36-3.155-2.08-2.03-7.12-3.569-9.94 2.055 2.32 4.432 4.35 7.437 5.37 3.3453 0.6 3.4295 3.99 4.1019 6.19 1.861 0.68 6.9139-0.21 4.2113 3.2-3.0073 1.59-6.2832 2.71-8.8942 4.94-2.837 0.77-8.828-0.04-7.87 4.61 0.321 1.38-0.1 2.93-1.585 3.37zm1.217-14.24c-4.404-1.77 3.686-4.45 2.245-0.35-0.53 0.64-1.532 0.62-2.245 0.35zm-4.063-6.33c-4.931-2.25 1.559-6.26 2.392-1.24 0.249 1.36-1.426 1.85-2.392 1.24zm10.783-25.02c0.853-4.21 1.149-8.89 3.997-12.33 2.4399-2.35 4.5037 2.04 1.8648 3.46-1.8338 2.89 0.0546 8.15-3.9518 9.45-0.682 0.12-1.414-0.1-1.91-0.58z"/>
          <path id="path4704" style="fill:#388f01" d="m11.073 150.56c0.98-3.7 5.139-5.8 8.624-6.4 5.723 0.07 9.519 5.12 12.353 9.49 4.486 6.83 8.158 14.21 13.233 20.64 1.983 4.14 1.787 8.87 2.049 13.34-0.427 4.74-3.728 8.52-6.374 12.24-2.766 3.68-7.298 5.14-11.644 5.87-4.024 1.37 3.109 4.17 0.776 6.9-2.241 1.52-5.502 0.3-8.125 1.3-2.585 0.45-5.202 0.95-7.838 0.74-2.338-2.71-5.7673-3.05-8.3137-0.59-5.1055 1.49-10.212-1.43-13.926-4.71-3.3933-2.24-8.2003-0.14-10.589-4.07-4.203-3.74-8.441-7.52-11.453-12.33-2.418-2.35-3.572-7.74-7.449-7.37-3.355 0.85-3.439-2.37-2.366-4.58 0.363-4.87-6.349-6.08-6.468-10.7 0.212-2.1 0.886-8.78-2.007-4.56-2.339 2.32-2.03-3.24-2.501-4.62-0.231-4.24 3.991-1.88 6.159-2.58 1.717-1.04 2.232-7.99 3.559-3.2 3.688 9.97 5.121 21.38 12.773 29.37 5.925 6.96 12.474 13.66 20.402 18.31 7.6363 3.14 16.127 2.48 24.169 1.86 5.804-0.6 11.56-2.7 15.826-6.78 5.496-4.45 10.295-11.64 8.205-18.98-1.363-4.59-4.086-8.66-5.241-13.34-2.256-6-5.708-11.5-9.447-16.67-2.013-3.6-6.333-4.91-9.69-2.29-1.836 0.8-3.777 1.83-4.696 3.71zm54.66 44.74c2.205 4.94-5.409 4.22-8.178 5.42-6.237 2.88-10.695 8.63-17.189 11.04-1.506-2.55 3.826-4.4 5.256-6.43 3.993-3.32 8.341-6.38 13.397-7.81 2.144-0.93 4.251-2.5 6.714-2.22zm-63.546-33.54c1.7861-0.12 6.7883 3.55 3.1068 0.87-0.7302-1.06-2.1591-3-3.1068-0.87zm15.72 16.27c3.253-0.13-4.614 4.49-2.1 1.13 0.607-0.53 1.366-0.82 2.1-1.13zm-4.006 20.24c2.911-1.31 6.028 3.39 1.863 3.91-3.575 2.54-9.2377 1.47-11.182-2.6-1.214-2.31-5.6045-2.79-3.101-5.86 2.2078-3.76 5.1911-7.02 7.2068-10.91 0.5664-2.76 6.1402-2.61 3.0552 0.18-1.477 3.76-4.1656 7.78-3.6621 11.82 0.9905 2.29 3.4501 3.39 5.8201 3.46zm-17.974-10.21c-3.8752 0.93-7.4556-5.35-10.868-0.7-4.424 0.94-2.509-4.51-1.416-6.71 1.971-5.02 4.606-10.64 9.9958-12.68 3.1647-1.24 6.5069-2.18 8.8661-4.55 2.7715 0.05 5.8441 0.95 8.3291 1.08-0.768 2.15-3.9698-2.15-1.2363-0.08 3.3293 2.48 6.9653 4.57 10.941 5.78-1.954-2.98-5.362-4.85-9.018-5.07-2.9279-2.53-6.8906-2.41-9.81 0-4.0509 0.71-8.1978 2.53-9.8734 6.58-0.9666 3.56-5.8686 6.67-3.4286 10.55 1.8037 2.57 5.2184 3.14 7.2772 5.36l0.2404 0.44zm-16.9-20.28c-3.438-0.08-8.47-5.4-3.811-7.54 3.866-1.69 8.905-0.96 11.852-4.47 2.063-2.47-0.664-7.77-3.826-5.09-2.914-3.37 5.36-5.18 6.001-1.39 0.7586 2.86 3.1109 4.77 5.5943 5.05 0.8343 4.17-5.4433 4.24-7.8633 6.36-2.685 1.82-6.998-1.03-8.533 2.58-0.558 1.48-0.165 3.16 0.586 4.5zm-5.711-9.83c-2.7 0.89-3.198-4.01-0.17-2.29 2.067-0.36 5.963 3.66 1.632 2.52-0.489-0.07-0.975-0.15-1.462-0.23zm-16.86-8.98c-1.695-4.02 3.327-6.87 4.098-10.61 1.367-2.36 3.416-6.16 6.706-4.92 2.591 1.71 4.462-3.16 7.119-3.76 2.819-1.44 8.425-5.2 10.373-1.37-2.527 2.66-6.911 2.71-9.987 4.75-4.197 1.8-8.086 4.32-11.013 7.87-2.522 2.57-4.554 5.75-7.296 8.04zm10.096 2.25c-3.98-1.73 2.129-7.53 2.655-2.62 0.409 1.5-1.171 3.02-2.655 2.62zm11.908 3.5c-4.404-1.77 3.686-4.45 2.245-0.35-0.53 0.64-1.532 0.62-2.245 0.35zm-4.063-6.33c-4.931-2.25 1.559-6.26 2.392-1.24 0.249 1.36-1.426 1.85-2.392 1.24zm12.463-27.31c-2.933-3.19 3.4119-7.75 3.1586-2.18 0.2132 1.98-1.4806 5.69-3.1586 2.18zm2.633-9.07c-2.189-4.03 5.9702-0.72 2.4167 1.27-0.9168-0.14-1.7755-0.6-2.4167-1.27z"/>
          <path id="path4706" style="fill:#214e1d" d="m26.493 149.31c3.166-2.83 4.366 5.5 0.711 2.47-0.527-0.67-1.163-1.59-0.711-2.47zm5.208 6.03c-0.771-2.73 1.302-1.71 1.457 0.25 2.813 5.22 6.51 9.92 9.117 15.26 2.139 2.98 3.938 6.3 4.038 10.05 0.563 5.21 0.944 11-2.321 15.47-2.888 4.6-7.814 7.79-13.196 8.5-4.224 1.7 0.065 5.3-0.282 7.84-2.824 1.56-6.183-0.74-9.273 0-4.684 0.5-9.383 0.49-14.084 0.33-3.1501-0.36-5.8849 2.62-8.9325 0.71-3.3834-1.53-5.9059-4.69-9.5085-5.7-3.985 1.07-6.447-1.65-8.988-4.19-4.797-3.96-8.789-8.77-12.064-14.04-1.644-2.55-3.631-5.59-7.006-4.1-3.034-1.03 0.989-5.66-1.548-7.82-2.079-3.2-6.925-4.91-5.402-9.64 0.23-1.98 0.351-5.32-2.217-3.48-3.857-1.06-2.239-7.82 1.698-4.94 3.597 0.69 2.277-7.71 4.803-3.29 0.856 5.74 2.555 11.39 5.422 16.48 3.568 6.19 7.437 12.24 11.775 17.92 4.222 5.51 10.622 8.62 16.465 12.07 4.9625 2.54 9.9769 5.67 15.748 5.67 3.644 0.02 7.461-0.03 10.913-1.26 4.028-1.98 7.735-4.55 11.662-6.7 6.064-3.9 12.156-9.77 12.426-17.43-0.267-5.83-4.311-10.46-6.154-15.8-1.735-3.96-3.591-7.92-4.548-12.16zm32.68 39.22c2.742 4.09-8.164 5.68-4.651 1.19 1.31-1.02 3.043-1.24 4.651-1.19zm-14.381 7.11c1.618 2.35-5.668 6.48-3.055 2.59 0.852-1.04 1.888-1.93 3.055-2.59zm-34.891-2.8c3.945 1.66-2.99 2.99-4.526 2.01-3.5544 0.12-4.661-4.38-0.2-2.96 1.606 0.14 3.172 0.54 4.726 0.95zm-5.281-15.62c0.708 4.03-0.9674 7.97-2.8273 11.45-4.2747 1.35-2.185-5.66-0.1339-7.16 0.8651-1.51 1.7355-3.04 2.9612-4.29zm-24.539 1.64c-3.976 0.83-0.478-5.08 0.475-6.74 2.43-5.01 5.8871-10.75 11.886-11.65 3.5353-1.28 7.4498-4.15 10.829-0.86 3.697 0.26 8.171-1.34 10.432 2.72 3.319 2.65 0.291-4.2-2.114-2.88-3.486 0.97-6.772 0.71-9.9933-0.77-3.4759 0.4-7.2769 0.15-10.476 1.72-4.3468 2.88-5.4101 8.41-8.0117 12.61-1.006 1.95-2.015 3.9-3.027 5.85zm-3.064-24.19c-2.789 0.68-6.969 5.43-9.152 2.59 0.506-5.32 7.384-2.5 10.625-4.48 3.685-1.03 6.8401-3.83 10.511-4.25 3.3645 1.16-0.5973 2.99-2.3609 2.68-3.0861 1.55-6.6141 1.76-9.6231 3.46zm-25.613-11.91c-1.362-4.66 4.238-7.01 5.35-11 0.387-1.95 3.309-5.73 4.237-2-0.968 4.41-5.177 6.96-7.321 10.74-0.669 0.83-1.405 1.62-2.266 2.26zm11.958 1.9c-4.087 1.48-2.646-7.95-0.031-3.13 0.5 0.93 0.951 2.29 0.031 3.13zm9.89 4.03c-4.404-1.77 3.686-4.45 2.245-0.35-0.53 0.64-1.532 0.62-2.245 0.35zm-4.063-6.33c-3.891-2.11 3.078-4.87 1.446-0.18-0.263 0.56-1.016 0.42-1.446 0.18zm14.523 5.62c-5.036-1.72 3.9778-6.13 1.8469-1.19-0.3531 0.67-1.0189 1.35-1.8469 1.19zm-12.716-22.31c-4.59-0.89 4.022-5.98 5.003-2.03-0.684 1.74-3.435 1.63-5.003 2.03zm10.606-10.73c-1.568-3.66 5.7715-3.66 2.562-0.32-0.571 0.72-1.822 0.85-2.562 0.32zm2.683-8.96c-2.189-4.03 5.9702-0.72 2.4167 1.27-0.9168-0.14-1.7755-0.6-2.4167-1.27z"/>
        </g>
        <path id="path4708" style="fill:#000000" d="m141.98 205.2c-2.13 2.47-1.92-4.25 0.14-0.85 0.52 0.85-1.92 0.17-0.14 0.85z"/>
        <path id="path4710" style="fill:#000000" d="m143.57 208.14c-1.85 2.68-2.3-4.06-0.14-1.1 1.21 1.22-1.67 0.44 0.14 1.1z"/>
        <path id="path4712" style="stroke:#000000;stroke-width:.51301px;fill:none" d="m138.93 203.36c-1.3 0.75-0.79 2.41-0.22 3.44"/>
        <path id="path4714" style="stroke:#000000;stroke-width:.51301px;fill:none" d="m139.42 208.39c0.74 1.23 2.17 2.05 3.62 1.97"/>
      </g>
    </g>
  </g>
  <metadata>
    <rdf:RDF>
      <cc:Work>
        <dc:format>image/svg+xml</dc:format>
        <dc:type rdf:resource="http://purl.org/dc/dcmitype/StillImage"/>
        <cc:license rdf:resource="http://creativecommons.org/licenses/publicdomain/"/>
        <dc:publisher>
          <cc:Agent rdf:about="http://openclipart.org/">
            <dc:title>Openclipart</dc:title>
          </cc:Agent>
        </dc:publisher>
        <dc:title>Alternate Mozilla Browser Icon</dc:title>
        <dc:date>2008-03-17T14:08:42</dc:date>
        <dc:description>I created this icon because I didn't like the default icon for the K-Meleon internet browser. It features Mozilla the Lizard spanning the "Firefox Globe". I use Icon Sushi to convert it to .ico format.</dc:description>
        <dc:source>https://openclipart.org/detail/15842/alternate-mozilla-browser-icon-by-roystonlodge</dc:source>
        <dc:creator>
          <cc:Agent>
            <dc:title>roystonlodge</dc:title>
          </cc:Agent>
        </dc:creator>
        <dc:subject>
          <rdf:Bag>
            <rdf:li>archive</rdf:li>
            <rdf:li>browser</rdf:li>
            <rdf:li>earth</rdf:li>
            <rdf:li>firefox</rdf:li>
            <rdf:li>globe</rdf:li>
            <rdf:li>icon</rdf:li>
            <rdf:li>kmeleon</rdf:li>
            <rdf:li>lizard</rdf:li>
            <rdf:li>mozilla</rdf:li>
            <rdf:li>zip</rdf:li>
          </rdf:Bag>
        </dc:subject>
      </cc:Work>
      <cc:License rdf:about="http://creativecommons.org/licenses/publicdomain/">
        <cc:permits rdf:resource="http://creativecommons.org/ns#Reproduction"/>
        <cc:permits rdf:resource="http://creativecommons.org/ns#Distribution"/>
        <cc:permits rdf:resource="http://creativecommons.org/ns#DerivativeWorks"/>
      </cc:License>
    </rdf:RDF>
  </metadata>
</svg>
